<?xml version="1.0" encoding="utf-8"?>
<!-- Generator: Adobe Illustrator 27.5.0, SVG Export Plug-In . SVG Version: 6.00 Build 0)  -->
<svg version="1.1" id="Layer_1" xmlns="http://www.w3.org/2000/svg" xmlns:xlink="http://www.w3.org/1999/xlink" x="0px" y="0px"
	 viewBox="0 0 500 400" style="enable-background:new 0 0 500 400;" xml:space="preserve">
<g>
	<g>
		<g>
			<polygon style="fill:#476302;" points="324.033,61.546 323.925,72.364 250.857,114.829 250.967,103.599 252.064,101.319 
				319.375,62.708 			"/>
		</g>
	</g>
	<g>
		<path style="fill:#8FBB02;" d="M324.033,61.606c0.001,0.712-1.105,1.851-1.671,2.103c-0.698,0.309-1.475,0.376-2.231,0.479
			c-0.222,0.03-0.45,0.066-0.642,0.181c-0.141,0.084-0.254,0.207-0.367,0.325c-1.511,1.571-3.442,2.66-5.343,3.727
			c-0.969,0.544-1.939,1.088-2.908,1.632c-0.524,0.294-1.075,0.596-1.676,0.609c-0.491,0.011-1.085-0.138-1.397,0.242
			c-0.115,0.14-0.158,0.325-0.235,0.489c-0.22,0.476-0.701,0.768-1.155,1.032c-0.68,0.395-1.36,0.79-2.04,1.184
			c-0.393,0.228-0.8,0.461-1.25,0.523c-0.892,0.122-0.913,0.218-1.421,0.964c-0.4,0.586-0.828,1.156-1.354,1.636
			c-1.274,1.164-2.98,1.708-4.628,2.219c-0.962,0.299-2.062,0.499-2.975,0.923c-0.705,0.326-1.111,1.007-1.646,1.579
			c-0.585,0.627-1.319,1.204-2.176,1.245c-0.328,0.016-0.676-0.045-0.973,0.095c-0.199,0.094-0.348,0.267-0.501,0.426
			c-0.579,0.601-1.298,1.046-2.008,1.485c-1.11,0.686-2.22,1.373-3.331,2.059c-0.553,0.342-1.109,0.685-1.71,0.933
			c-0.561,0.231-1.164,0.337-1.706,0.613c-0.608,0.31-0.9,0.794-1.341,1.296c-0.783,0.892-2.036,1.176-3.206,1.38
			c-0.254,0.045-0.515,0.09-0.738,0.219c-0.257,0.148-0.44,0.392-0.629,0.62c-1.334,1.617-3.195,2.698-5.057,3.66
			c-0.732,0.379-1.485,0.749-2.297,0.889c-0.418,0.072-0.859,0.086-1.237,0.279c-1.003,0.512-1.572,1.586-2.572,2.142
			c-1.143,0.636-2.203,1.406-3.305,2.108c-0.833,0.53-1.699,1.024-2.624,1.377c-0.728,0.278-1.806,0.235-2.439,0.651
			c-0.205,0.134-0.335,0.353-0.492,0.542c-0.781,0.938-1.682,1.07-2.814,0.714c-1.532-0.482-3.033-1.119-4.359-2.033
			c-0.679-0.468-1.274-1.01-1.841-1.607c-0.591-0.622-1.169-0.589-1.978-0.661c-0.82-0.073-1.559-0.525-2.199-1.044
			c-0.362-0.294-0.779-0.602-1.059-0.977c-0.41-0.55-0.815-0.798-1.439-1.026c-0.678-0.248-1.341-0.708-1.937-1.108
			c-0.139-0.093-0.284-0.199-0.343-0.356c-0.033-0.087-0.038-0.188-0.1-0.258c-0.049-0.056-0.125-0.079-0.196-0.101
			c-1.443-0.435-2.834-1.04-4.153-1.769c-0.669-0.369-1.324-0.768-1.952-1.204c-0.445-0.308-1.091-0.694-1.318-1.197
			c-0.023-0.052-0.045-0.107-0.086-0.146c-0.048-0.047-0.116-0.065-0.181-0.081c-0.45-0.113-0.904-0.215-1.345-0.359
			c-2.183-0.715-3.874-2.408-5.623-3.896c-0.121-0.103-0.248-0.208-0.401-0.247c-0.737-0.187-1.442-0.153-2.16-0.468
			c-0.708-0.311-1.412-0.737-1.787-1.44c-0.126-0.236-0.244-0.525-0.502-0.592c-0.099-0.026-0.204-0.012-0.306-0.011
			c-0.606,0.01-1.135-0.382-1.622-0.742c-0.672-0.496-1.381-0.975-2.189-1.186c-0.375-0.098-0.764-0.136-1.135-0.245
			c-0.426-0.125-0.819-0.34-1.201-0.566c-0.436-0.258-0.865-0.535-1.245-0.87c-0.783-0.69-1.335-1.929-2.373-2.138
			c-2.689-0.542-5.175-2.038-6.912-4.16c-0.104-0.127-0.207-0.257-0.339-0.354c-0.107-0.078-0.23-0.13-0.354-0.176
			c-0.872-0.321-1.853-0.337-2.668-0.784c-0.383-0.21-0.71-0.507-1.072-0.75c-0.902-0.607-2.04-0.905-2.738-1.739
			c-0.327-0.391-0.552-0.892-0.992-1.149c-1.469-0.855-3.397-0.51-4.355-2.231c-1.019-0.102-2.003-0.429-2.949-0.822
			c-0.447-0.186-0.894-0.392-1.261-0.708c-0.529-0.456-0.892-0.972-1.455-1.394c-0.394-0.296-0.792-0.589-1.208-0.853
			c-0.212-0.134-0.429-0.26-0.652-0.375c-0.111-0.057-0.223-0.111-0.337-0.163c-0.096-0.043-0.223-0.18-0.198-0.231
			c0.093-0.195,0.29-0.425,0.484-0.519c0.204-0.099,0.413-0.2,0.639-0.216c0.113-0.008,0.219-0.014,0.328-0.048
			c0.112-0.035,0.184-0.116,0.26-0.204c0.979-1.121,2.284-1.95,3.708-2.377c0.674-0.202,1.314-0.507,1.968-0.771
			c0.474-0.192,0.94-0.425,1.392-0.666c0.486-0.259,0.972-0.519,1.458-0.778c0.318-0.17,0.643-0.345,0.882-0.615
			c0.214-0.242,0.343-0.562,0.608-0.753c0.214-0.154,0.428-0.31,0.643-0.471c0.298-0.223,0.636-0.385,0.971-0.546
			c1.003-0.481,2.018-0.928,2.978-1.486c0.999-0.571,2.022-0.877,3.124-1.228c0.1-0.032,0.202-0.065,0.284-0.13
			c0.081-0.064,0.137-0.155,0.193-0.242c1.05-1.636,2.84-2.777,4.766-3.039c0.072-0.558,0.794-0.915,1.281-0.634
			c0.23-0.819,1.148-1.191,1.935-1.513c0.538-0.22,1.106-0.261,1.64-0.517c0.578-0.277,1.092-0.676,1.57-1.099
			c0.777-0.686,1.496-1.457,2.395-1.971c0.904-0.517,1.942-0.748,2.889-1.183c0.879-0.403,1.667-0.977,2.515-1.442
			c0.847-0.465,1.795-0.828,2.758-0.752c0.137,0.011,0.287,0.027,0.399-0.053c0.089-0.064,0.129-0.173,0.169-0.275
			c0.359-0.931,0.989-1.752,1.785-2.352c0.385-0.291,0.814-0.399,1.21-0.634c0.511-0.304,0.937-0.838,1.401-1.213
			c1.804-1.458,3.767-2.772,5.983-3.509c1.417-0.471,2.957-0.721,4.155-1.612c0.727-0.542,1.275-1.283,1.858-1.978
			c1.311-1.562,2.961-2.987,4.967-3.356c0.598-0.11,1.209-0.122,1.817-0.147c0.48-0.02,0.971-0.051,1.411-0.244
			c0.75-0.329,1.504-1.196,2.228-1.651c1.064-0.669,2.145-1.325,3.307-1.812c1.529-0.639,4.212,1.145,4.567,2.637
			c0.852-0.425,1.953-0.289,2.677,0.33c0.348,0.298,0.608,0.69,0.971,0.969c0.373,0.286,0.831,0.435,1.277,0.584
			c3.288,1.098,6.598,2.57,8.854,5.202c0.241,0.282,0.488,0.589,0.84,0.707c0.208,0.07,0.432,0.065,0.65,0.088
			c0.924,0.094,1.776,0.715,2.149,1.566c0.064,0.147,0.12,0.306,0.24,0.412c0.105,0.093,0.246,0.131,0.381,0.169
			c1.412,0.394,2.779,0.952,4.065,1.658c0.669,0.367,1.315,0.773,1.935,1.217c0.441,0.316,0.886,1.046,1.333,1.245
			c0.247,0.11,0.523,0.125,0.791,0.156c1.395,0.165,2.488,0.856,3.697,1.497c0.459,0.243,0.882,0.4,1.264,0.774
			c0.408,0.4,0.692,0.91,1.18,1.228c0.669,0.435,1.535,0.391,2.291,0.647c0.645,0.218,1.191,0.648,1.724,1.071
			c0.717,0.569,1.434,1.137,2.151,1.706c0.215,0.17,0.433,0.343,0.685,0.454c0.178,0.078,0.368,0.124,0.556,0.174
			c2.165,0.575,4.155,1.796,5.648,3.466c0.117,0.131,0.233,0.266,0.379,0.364c0.462,0.309,1.041,0.182,1.561,0.321
			c0.665,0.178,1.27,0.547,1.853,0.902c1.169,0.712,2.733,1.485,3.637,2.53c0.074,0.086,0.146,0.179,0.244,0.236
			c0.173,0.1,0.388,0.069,0.588,0.059c0.791-0.04,1.657,0.402,1.861,1.167c0.03,0.114,0.05,0.24,0.135,0.322
			c0.049,0.048,0.115,0.074,0.178,0.099c1.108,0.44,2.195,0.912,3.313,1.36c1.209,0.502,2.488,1.061,3.209,2.154
			c0.18,0.272,0.319,0.573,0.529,0.823c0.241,0.289,0.561,0.498,0.877,0.703c1.042,0.677,2.102,1.362,3.288,1.734
			c0.645,0.202,1.775-0.225,2.332,0.381C323.762,61.12,324.033,61.501,324.033,61.606z"/>
	</g>
	<path style="fill:#8FBB02;" d="M303.698,71.973c0.385,0.05,0.774,0.066,1.163,0.07c3.843-3.758,9.015-6.678,14.24-7.677
		c1.442-1.558,3.912-1.075,4.873-2.678c-0.176-0.651-1.553-3.419-1.579-3.954c-0.077-1.558,0.059-3.015,0.448-4.523
		c0.879-3.402,2.732-6.465,4.527-9.448c-1.08,0.436-3.528,1.06-4.302,1.845c-1.56,1.581-2.953,3.326-4.149,5.198
		c-0.815-4.69,0.077-9.658,2.473-13.772c-1.123,0.006-1.992,0.956-2.64,1.874c-1.638,2.319-2.851,4.937-3.561,7.685
		c-0.233-2.586,0.271-5.176,0.407-7.769c0.136-2.593-0.16-5.366-1.75-7.419c0.173,3.257,0.057,6.575-0.909,9.69
		c-0.966,3.115-2.853,6.031-5.624,7.75c-0.842,0.522-1.241-6.136-1.059-6.762c0.708-2.441,2.321-4.51,3.823-6.507
		c-3.401,1.108-5.733,2.995-7.461,6.167c-0.063-3.581,0.899-7.174,2.744-10.244c-3.24,2.329-5.867,5.503-7.551,9.121
		c1.377-3.132,1.867-6.648,1.399-10.036c-0.696,3.68-3.006,7.024-6.2,8.978c2.161-2.762,3.398-8.617,2.046-11.893
		c-0.734,1.568-1.279,3.288-2.164,4.83c-0.477,0.831-0.822,1.604-1.532,2.285c-0.313,0.3-1.881,1.018-1.978,1.288
		c1.519-4.256,3.052-8.873,1.746-13.199c-0.466,3.078-2.363,5.722-4.205,8.233c0.666-2.49,1.003-5.067,0.999-7.644
		c-2.361,2.529-4.808,5.212-5.644,8.569c-0.432-3.888,2.994-14.307,8.193-14.194c-2.902-0.064-5.64,1.281-8.137,2.763
		c-2.001,1.188-4.189,3.007-3.861,5.311c-1.118-4.906-0.118-10.258,2.694-14.431c-4.691,3.138-7.623,8.745-7.523,14.388
		c-0.051-3.455-0.276-7.32-2.814-9.666c1.026,5.082-0.479,9.242-2.72,13.666c-0.107-3.144-0.566-6.275-1.364-9.318
		c-0.239,2.32-1.25,5.928-3.369,7.118c-2.146-3.019-2.178-11.541,1.363-13.878c-2.388,1.576-4.358,3.779-5.657,6.328
		c-0.816-4.249,0.025-8.794,2.306-12.47c-3.529,2.898-6.064,6.985-7.091,11.435c-0.013-1.961-0.192-4.248-1.827-5.33
		c-0.031,2.152-0.666,4.292-1.813,6.113c-0.775-1.743-0.712-3.26-2.092-4.892c-1.397-1.653-3.391-3.577-6.414-4.769
		c0,0,4.432,4.711,5.061,8.38c0.328,1.913,0.318,3.692-0.107,4.753c-0.773,1.929-2.343,3.38-4.144,4.634
		c-0.486,0.374-2.865,1.834-3.031,1.905c-1.317,0.783-2.598,1.543-3.652,2.375c-0.825,0.652-1.56,1.406-2.214,2.225
		c0.054,0.033,0.111,0.061,0.165,0.095c0.417,0.264,0.814,0.557,1.208,0.853c0.563,0.422,0.927,0.938,1.456,1.394
		c0.367,0.316,0.814,0.522,1.261,0.708c0.945,0.394,1.929,0.72,2.949,0.822c0.958,1.722,2.885,1.376,4.355,2.231
		c0.441,0.256,0.665,0.758,0.992,1.149c0.699,0.834,1.836,1.132,2.738,1.739c0.362,0.244,0.69,0.54,1.072,0.75
		c0.815,0.448,1.796,0.463,2.668,0.784c0.124,0.046,0.247,0.098,0.354,0.176c0.132,0.096,0.235,0.227,0.339,0.354
		c1.737,2.122,4.224,3.619,6.912,4.161c1.037,0.209,1.59,1.448,2.373,2.138c0.38,0.335,0.809,0.612,1.245,0.87
		c0.382,0.226,0.775,0.441,1.2,0.566c0.372,0.109,0.761,0.147,1.135,0.245c0.808,0.211,1.518,0.69,2.189,1.186
		c0.19,0.14,0.389,0.279,0.593,0.404c3.035,0.233,4.835,2.197,7.547,4.209c1.698,1.259,3.807,1.753,5.51,3.03
		c0.894,0.67,1.719,1.413,2.54,2.162c0.239,0.119,0.482,0.229,0.721,0.349c0.126,0.073,0.245,0.159,0.372,0.23
		c0.667,0.368,1.354,0.704,2.055,1.004c0.839,0.429,1.677,0.859,2.513,1.293c0.067,0.07,0.144,0.132,0.225,0.187
		c0.596,0.401,1.259,0.861,1.937,1.108c0.624,0.228,1.029,0.476,1.439,1.026c0.28,0.375,0.697,0.683,1.059,0.977
		c0.639,0.519,1.378,0.97,2.199,1.044c0.809,0.072,1.386,0.039,1.978,0.661c0.3,0.316,0.611,0.614,0.935,0.896
		C300.985,72.344,302.105,71.767,303.698,71.973z"/>
	<path style="fill:#6C9905;" d="M258.796,45.132c0.102,0.087,0.203,0.174,0.305,0.261c2.983,2.553,6.579,4.151,10.156,5.679
		c2.405,1.027,6.723,4.271,9.285,3.145c1.065-0.468,1.942-1.271,2.93-1.884c2.616-1.624,6.065-1.816,8.844-0.49
		c-1.198-2.563-3.558-4.555-6.286-5.305c1.973-0.675,4.053-1.034,6.138-1.057c-2.934-1.407-6.427-1.606-9.502-0.541
		c3.443-2.909,7.828-4.687,12.325-4.996c-4.907-2.399-10.741-0.9-15.966,0.691c2.598-3.901,6.835-6.671,11.45-7.488
		c-3.539-0.571-7.215-0.281-10.621,0.839c2.807-2.878,6.607-4.769,10.595-5.274c-3.219-2.083-7.432-1.309-11.171-0.461
		c3.172-3.155,4.05-6.218,4.754-10.663c-1.418,3.297-3.83,6.16-6.839,8.116c2.862-2.837,2.441-7.494,1.815-11.476
		c-0.492,3.462-2.065,6.763-4.443,9.327c0.27-3.555-0.871-7.198-3.122-9.963c1.129,2.923,0.398,6.474-1.793,8.714
		c-0.589-2.971-0.491-6.075,0.284-9.003c-2.848,2.499-4.638,6.166-4.858,9.948c-0.222-3.538,0.258-7.119,1.405-10.474
		c-0.496,1.452-2.439,2.897-3.115,4.45c-0.8,1.839-0.946,3.738-1.213,5.764c-0.026-3.705-2.931-7.188-6.572-7.877
		c2.112,2.592,2.362,5.044-0.17,7.661c-0.725,0.75-1.603,1.333-2.39,2.018c-3.096,2.693-4.372,6.289-2.692,10.148
		c0.837,1.924,2.483,3.356,4.077,4.721C254.536,41.485,256.666,43.308,258.796,45.132z">
		<animateTransform
			attributeName="transform"
			type="translate"
			keyTimes="0;0.5;1"
			values="0;-2;0"
			repeatCount="indefinite"
			calcMode="spline"
			keySplines="0.42 0 0.78 1;0.22 0 0.58 1"
			begin="0.0s"
			dur="2s"
		/>
	</path>
	<path style="fill:#A4C90A;" d="M316.803,62.28c-0.002-0.042-0.005-0.084-0.006-0.127c-0.025-0.641-0.028-1.291-0.017-1.942
		c0.002-0.106,0.002-0.211,0.005-0.317c0.017-0.632,0.056-1.263,0.114-1.891c0.391-4.256,1.777-8.267,5.094-10.262
		c-3.806,2.29-10.057,8.444-10.1,13.351c0.022-2.464,0.376-4.925,1.051-7.295c-1.723,1.761-3.144,3.817-4.182,6.051
		c-0.224-3.724-0.384-7.716,1.568-10.895c-1.966,0.647-3.668,2.063-4.663,3.877c-0.328-2.531-0.374-5.361,0.315-7.84
		c0.185-0.665,1.873-5.292,2.389-5.294c-1.123,0.006-1.992,0.956-2.639,1.873c-1.553,2.199-2.709,4.67-3.432,7.263
		c-0.039,0.142-0.093,0.28-0.13,0.423c-0.014-0.16-0.004-0.32-0.013-0.48c-0.137-2.427,0.293-4.856,0.42-7.288
		c0.135-2.593-0.161-5.366-1.75-7.419c1.014,1.309,0.152,6.033-0.257,7.624c-0.284,1.106-6.029,11.781-6.795,10.072
		c-1.631-3.635-1.294-8.085,0.866-11.433c-2.149,0.957-3.962,2.652-5.06,4.732c0.015-2.862,1.605-5.666,4.052-7.148
		c-3.095,1.22-5.658,3.731-6.939,6.801c-0.233-3.272,0.743-6.617,2.701-9.25c-2.738,2.266-4.883,5.242-6.165,8.557
		c0.838-1.93,1.682-3.881,2.072-5.949c0.39-2.068,0.291-4.294-0.687-6.157c-0.191,3.31-1.807,6.514-4.354,8.636
		c0.711-2.128,1.468-4.417,1.749-6.652c0.127-1.015-0.348-2.939-0.002-3.777c-1.328,3.214-3.634,7.421-6.765,9.184
		c2.697-4.036,4.323-8.943,2.866-13.773c0.726,2.407-2.919,7.225-4.826,8.271c0.646-1.935,0.967-3.979,0.945-6.02
		c-0.733,2.039-1.955,3.9-3.535,5.382c-0.294-2.895,0.165-5.864,1.32-8.534c-2.599,1.531-4.554,4.119-5.316,7.037
		c-0.548-3.328,0.358-6.871,2.438-9.526c-3.15,1.538-5.549,4.536-6.358,7.947c0.26-3.403,0.467-7.049-1.261-9.992
		c-0.133,3.291-1.209,6.538-3.068,9.257c0.531-3.146-0.236-6.49-2.083-9.092c1.273,3.549,0.526,7.749-1.892,10.642
		c0.52-3.571-0.073-7.295-1.674-10.528c0.279,2.788-0.836,5.682-2.915,7.561c-0.167,0.151-1.572-4.283-1.626-4.713
		c-0.239-1.911,0.146-3.576,0.515-5.428c0.714-3.589,2.234-6.656,4.934-9.258c-5.437,2.068-8.607,8.188-11.571,12.799
		c0.132-2.378,0.289-5.428-0.081-7.816c-0.343-2.216-1.537-4.968-1.537-4.968c0.708,7.538-2.519,14.793-2.519,14.793
		c-0.086-2.599-1.799-4.941-2.451-5.713c-1.397-1.652-3.391-3.577-6.414-4.769c3.202,1.262,4.562,6.451,4.369,9.504
		c-1.174-2.325-3.484-4.042-6.049-4.496c3.409,3.069,4.729,8.137,3.596,12.547c-0.137,0.535-0.314,1.058-0.523,1.569
		c-0.026,0.062-0.054,0.123-0.08,0.185c-0.213,0.497-0.454,0.983-0.74,1.447c-0.72,1.165-1.637,2.217-2.19,3.471
		c-0.553,1.253-0.673,2.827,0.167,3.908c1.377,1.771,4.203,1.544,5.747,3.388c0.699,0.834,1.836,1.132,2.738,1.739
		c0.362,0.244,0.69,0.54,1.072,0.75c0.815,0.448,1.796,0.463,2.668,0.784c0.124,0.046,0.247,0.098,0.354,0.176
		c0.132,0.096,0.235,0.227,0.339,0.353c1.738,2.122,4.224,3.619,6.912,4.16c1.037,0.209,1.59,1.448,2.373,2.138
		c0.38,0.335,0.809,0.612,1.245,0.87c0.382,0.226,0.775,0.441,1.2,0.566c0.372,0.109,0.761,0.147,1.135,0.245
		c0.808,0.211,1.518,0.69,2.19,1.186c0.19,0.14,0.389,0.279,0.593,0.404c3.035,0.233,4.835,2.197,7.547,4.209
		c1.698,1.259,3.807,1.754,5.51,3.03c0.893,0.67,1.719,1.413,2.54,2.161c0.239,0.119,0.482,0.229,0.721,0.349
		c0.127,0.073,0.245,0.159,0.372,0.23c0.667,0.368,1.353,0.704,2.055,1.004c0.839,0.429,1.677,0.859,2.513,1.293
		c0.067,0.07,0.144,0.132,0.224,0.187c0.596,0.401,1.259,0.86,1.937,1.108c0.624,0.228,1.029,0.476,1.439,1.026
		c0.28,0.375,0.697,0.683,1.059,0.977c0.639,0.52,1.378,0.971,2.198,1.044c0.809,0.072,1.386,0.039,1.978,0.661
		c1.749,1.839,3.285,2.426,5.647,2.847c1.381,0.246,2.363,0.638,3.336,1.167c0.128-0.036,0.264-0.068,0.388-0.107
		c1.648-0.511,3.354-1.055,4.628-2.219c0.526-0.48,0.954-1.05,1.354-1.636c0.508-0.745,0.529-0.842,1.421-0.964
		c0.451-0.062,0.857-0.295,1.25-0.523c0.68-0.395,1.36-0.789,2.04-1.184c0.454-0.263,0.935-0.555,1.155-1.032
		c0.076-0.165,0.12-0.349,0.235-0.489c0.312-0.379,0.906-0.231,1.397-0.242c0.6-0.013,1.152-0.315,1.675-0.609
		c0.969-0.544,1.939-1.088,2.908-1.632c1.159-0.65,2.317-1.323,3.395-2.094c-0.09-0.639-0.169-1.304-0.232-1.987
		c-0.003-0.032-0.005-0.065-0.008-0.097C316.875,63.602,316.831,62.945,316.803,62.28z"/>
	<path style="fill:#8FBB02;" d="M303.402,67.545L303.402,67.545c0.034-0.174,0.082-0.355,0.143-0.544
		c0.074-0.212,0.155-0.428,0.272-0.663c0.455-0.916,2.595-4.266,3.717-4.332c-1.727,0.101-3.323,1.028-4.561,2.237
		c-1.238,1.209-2.168,2.691-3.085,4.158c-1.25-0.823-2.384-1.964-2.754-3.414c-0.632-2.473,1.102-4.912,2.974-6.646
		c2.176-2.015,4.69-3.666,7.404-4.862c-2.903-0.248-5.839-0.116-8.708,0.39c-1.794,0.316-3.796,0.967-4.523,2.638
		c0.394-1.498,0.788-2.995,1.183-4.493c-1.948,1.836-4.085,3.472-6.365,4.874c1.125-3.737,1.13-7.804,0.013-11.544
		c-1.271,3.754-3.605,7.142-6.66,9.667c1.232-3.408,1.344-7.209,0.316-10.684c-0.318,1.778-0.641,3.575-1.367,5.228
		c-1.164,2.652-2.914,3.367-5.25,4.639c2.37-3.57,3.53-7.927,3.248-12.203c-0.937,3.581-3.418,6.729-6.68,8.478
		c0.728-1.884,1.456-3.768,2.184-5.653c-1.449,2.059-2.898,4.118-4.347,6.176c-0.109-3.034,0.645-6.095,2.149-8.733
		c-4.401,2.773-7.824,7.066-9.548,11.973c-0.513-5.426,1.336-10.766,3.158-15.903c-1.118,0.779-2.41,1.307-3.755,1.533
		c1.075-1.132,1.983-2.422,2.686-3.815c-1.163,0.548-2.334,1.198-3.538,1.627c0.353-1.726,1.545-3.65,2.708-4.964
		c-2.759,1.647-5.224,3.787-7.242,6.287c-0.428-2.428,0.072-4.912,0.571-7.326c-1.594,2.427-3.415,4.705-5.433,6.793
		c1.194-2.622,1.293-5.722,0.27-8.415c-0.071,2.898-1.075,5.767-2.827,8.076c-1.142-2.071-3.064-3.622-4.238-5.675
		c-1.242-2.172-1.558-4.794-1.195-7.269c0.073-0.495,0.189-0.98,0.31-1.465c0.057-0.221,0.111-0.443,0.176-0.662h0
		c0.5-1.696,1.252-3.323,2.142-4.855c-2.146,1.905-3.799,4.301-5.088,6.869c-0.304,0.587-0.592,1.18-0.849,1.786
		c-0.072,0.17-0.186,0.37-0.37,0.362c-0.29-0.013-0.273-0.447-0.177-0.72c0.141-0.405,0.225-0.825,0.283-1.249
		c0.007-0.054,0.01-0.107,0.015-0.161c0.046-0.414,0.052-0.829,0.019-1.244v-0.002l0,0c-0.038-0.473-0.109-0.943-0.25-1.395
		c-0.041,0.526-0.115,1.026-0.206,1.513c-0.166,0.894-0.423,1.72-0.785,2.48c-0.018,0.036-0.031,0.074-0.049,0.11
		c-0.089,0.179-0.192,0.35-0.293,0.522c-0.066,0.111-0.131,0.222-0.202,0.33c-0.094,0.142-0.196,0.279-0.3,0.416
		c-0.101,0.131-0.206,0.26-0.316,0.385c-0.099,0.114-0.2,0.226-0.307,0.335c-0.145,0.147-0.301,0.288-0.462,0.426
		c-0.094,0.082-0.184,0.167-0.284,0.246c-0.272,0.215-0.559,0.422-0.873,0.616c0.092-0.496,0.123-0.998,0.125-1.5
		c0-0.057-0.004-0.113-0.006-0.17c-0.008-0.488-0.058-0.97-0.149-1.446v-0.001l0,0c-0.41-2.148-1.637-4.111-3.651-5.195
		c1.091,1.325,1.062,3.218,0.947,4.931c-0.082,1.217-0.182,2.453-0.616,3.593c-0.434,1.14-1.251,2.19-2.389,2.628
		c0.133-0.382,0.215-0.775,0.27-1.173c0.056-0.355,0.074-0.712,0.079-1.073v-0.001v0c0.017-1.179-0.189-2.372-0.586-3.488
		c-0.654-1.838-1.71-3.501-2.758-5.146c1.066,3.066,0.611,6.622-1.192,9.321c0.072-2.268-0.665-4.554-2.049-6.352
		c0.101,3.532,0.104,7.383-2.073,10.166c-1.049,1.341-1.057,2.073-0.516,2.775c0.012,0.016,0.023,0.033,0.036,0.048
		c0.095,0.117,0.203,0.237,0.327,0.356c0.017,0.016,0.035,0.034,0.052,0.05c0.414,0.388,0.95,0.799,1.57,1.333
		c0.366,0.315,0.813,0.521,1.259,0.706c0.946,0.393,1.929,0.72,2.948,0.822c0.958,1.722,2.885,1.376,4.355,2.231
		c0.441,0.257,0.665,0.758,0.992,1.149c0.699,0.834,1.836,1.132,2.738,1.739c0.362,0.244,0.69,0.54,1.072,0.75
		c0.815,0.448,1.796,0.463,2.668,0.784c0.124,0.046,0.247,0.098,0.354,0.176c0.132,0.096,0.235,0.227,0.339,0.353
		c1.738,2.122,4.224,3.619,6.912,4.16c1.037,0.209,1.59,1.448,2.373,2.138c0.38,0.335,0.809,0.612,1.245,0.87
		c0.382,0.226,0.775,0.441,1.2,0.566c0.372,0.109,0.761,0.147,1.135,0.245c0.67,0.175,1.271,0.536,1.84,0.937
		c2.114,0.531,3.924,1.542,5.521,2.919c2.085,0.794,3.799,2.212,5.861,3.586c1.988,1.324,4.056,2.531,5.964,3.95
		c0.095,0.06,0.189,0.123,0.287,0.177c2.89,1.596,3.692,2.94,5.496,5.792c1.055,1.668,2.129,3.358,3.589,4.686
		c0.37,0.336,0.774,0.625,1.181,0.91l0,0c1.663,1.165,3.592,1.949,5.551,2.525c0.542,0.16,1.094,0.286,1.644,0.417
		c0.247-0.189,0.482-0.397,0.692-0.621c0.535-0.573,0.941-1.253,1.646-1.58c0.913-0.423,2.013-0.624,2.975-0.922
		c1.648-0.511,3.354-1.055,4.628-2.219c0.526-0.48,0.954-1.05,1.354-1.636c0.508-0.745,0.529-0.842,1.421-0.964
		c0.451-0.062,0.857-0.295,1.25-0.523c0.68-0.395,1.36-0.789,2.04-1.184c0.373-0.216,0.755-0.458,1.005-0.799
		c-0.758-0.317-1.522-0.625-2.183-0.985C303.965,69.948,303.106,69.055,303.402,67.545z"/>
	<g>
		<g>
			<polygon style="fill:#4D770B;" points="250.967,103.599 250.857,114.829 177.313,72.366 177.359,68.551 177.422,61.548 
				186.904,62.939 216.965,79.534 			"/>
		</g>
	</g>
	<path style="fill:#C0DD1D;" d="M232.826,68.068c-4.694-1.294-3.795-8.427-3.97-12.163c-0.092-1.961-0.661-12.968-3.355-13.192
		c1.896,0.158,3.663,1.403,4.449,3.135c0.091-2.569-0.16-5.151-0.747-7.654c1.258,2.105,2.3,4.338,3.107,6.653
		c0.141-4.763,3.381-8.796,6.461-12.432c-1.867,3.831-2.573,8.218-2.002,12.441c0.334-4.774,4.849-8.003,8.916-10.525
		c-2.733,3.125-4.484,7.098-4.947,11.224c2.988-2.998,7.15-4.794,11.381-4.912c-3.504,1.25-6.132,4.659-6.449,8.366
		c3.128-1.772,5.845-4.266,7.878-7.231c-0.041,4.498-1.952,8.95-5.183,12.079c3.355-2.542,6.204-5.75,8.334-9.381
		c-0.101,3.013-1.59,5.783-3.043,8.424c-2.242,4.078-4.549,8.238-8.005,11.355C242.195,67.371,237.313,69.305,232.826,68.068z"
	>
		<animateTransform
			attributeName="transform"
			type="translate"
			keyTimes="0;0.5;1"
			values="0;3;0"
			repeatCount="indefinite"
			calcMode="spline"
			keySplines="0.42 0 0.58 1;0.42 0 0.58 1"
			begin="0s"
			dur="2s"
		/>
	</path>
	<path style="fill:#C0DD1D;" d="M214.537,63.493c-4.868-0.051-5.824-7.176-6.949-10.743c-0.59-1.872-3.955-12.368-6.617-11.895
		c1.873-0.333,3.9,0.419,5.103,1.893c-0.569-2.507-1.473-4.938-2.679-7.209c1.754,1.713,3.333,3.605,4.705,5.637
		c-1.082-4.641,1.019-9.368,3.066-13.671c-0.826,4.181-0.386,8.603,1.247,12.539c-0.898-4.701,2.641-8.977,5.928-12.455
		c-1.842,3.721-2.519,8.008-1.912,12.116c2.122-3.662,5.686-6.463,9.746-7.659c-3.068,2.105-4.737,6.072-4.095,9.737
		c2.571-2.513,4.56-5.619,5.767-9.006c1.11,4.359,0.402,9.152-1.922,13.003c2.593-3.316,4.527-7.145,5.658-11.2
		c0.673,2.939-0.058,5.997-0.787,8.922c-1.125,4.516-2.29,9.127-4.835,13.024C223.416,60.423,219.191,63.541,214.537,63.493z"/>
	<path style="fill:#C0DD1D;" d="M273.66,83.691c-0.026,0.109-0.051,0.218-0.075,0.328c0.864-1.733,2.276-3.187,3.981-4.104
		c-2.364,3.511-2.354,7.684-4.017,11.471c3.333-1.519,5.974-4.487,7.096-7.973c1.306,2.071,2.398,4.277,3.252,6.572
		c1.93-2.272,2.286-5.754,0.855-8.369c2.439,1.614,4.72,3.466,6.8,5.522c-0.039-0.692-3.331-9.885-4.248-9.099
		c1.131-0.969,2.717-1.267,4.2-1.128c1.483,0.139,2.898,0.67,4.291,1.196c-1.345-2.737-3.97-4.504-6.907-5.112
		c2.162-1.157,4.135-2.611,6.306-3.744c-2.034,0.355-4.032,0.917-5.953,1.675c2.962-2.709,3.754-6.993,4.382-10.957
		c-1.418,3.297-3.83,6.16-6.839,8.116c2.863-2.838,2.441-7.494,1.815-11.476c-0.492,3.462-2.065,6.763-4.443,9.327
		c0.271-3.555-0.871-7.198-3.122-9.963c1.129,2.923,0.398,6.474-1.793,8.714c-0.589-2.97-0.491-6.075,0.284-9.002
		c-2.848,2.499-4.638,6.166-4.858,9.948c-0.222-3.538,0.258-7.12,1.405-10.475c-2.954,2.722-4.205,7.407-5.275,11.137
		c-2.941-1.389-6.35-1.761-9.522-1.04c3.444,1.526,7.14,3.284,8.863,6.633c-1.969-0.621-4.091,0.441-5.63,1.818
		c-1.538,1.377-2.775,3.102-4.493,4.248c3.035-1.376,6.418-1.977,9.741-1.731c-0.896,1.316-1.792,2.633-2.688,3.949
		c1.338-0.66,2.749-1.172,4.199-1.522c-0.305,0.074-2.41,2.889-2.75,3.331c-0.991,1.291-1.812,2.982-1.47,4.646
		c2.194-2.987,4.592-6.131,8.08-7.384C274.51,80.681,274.018,82.17,273.66,83.691z"/>
	<g><path style="fill:#73A905;" 
	 d="M265.07,71.302c4.381-2.112,9.475-2.706,14.225-1.659c-5.175,1.953-9.259,6.574-10.562,11.949
		c-0.663,2.731-0.644,5.596-1.351,8.316c-0.221,0.851-0.568,1.754-1.327,2.197c-0.452,0.264-0.992,0.326-1.515,0.347
		c-2.021,0.083-4.03-0.357-5.962-0.956c-7.657-2.371-14.486-7.338-19.1-13.892c-1.722-2.447-3.129-5.166-5.148-7.394
		c-0.842-0.928-2.076-1.251-2.713-2.33c-1.511-2.562,0.068-6.77,0.927-9.325c0.515-1.53,1.155-3.058,1.19-4.672
		c0.023-1.056-0.223-2.117-0.707-3.055c1.032,0.786,2.035,1.64,2.773,2.707c0.738,1.067,1.195,2.376,1.03,3.663
		c1.672-3.536,0.513-7.742-1.185-11.062c2.469,1.403,5.102,4.723,4.878,7.742c0.16-2.157,0.319-4.314,0.478-6.471
		c0.712,1.484,1.209,3.07,1.472,4.695c0.529-3.431,2.373-6.641,5.069-8.827c-1.743,2.929-2.654,6.561-1.575,9.891
		c3.202-4.435,4.813-9.996,4.477-15.456c2.152,5.855,1.83,12.575-0.871,18.197c2.84-5.011,8.51-8.285,14.27-8.24
		c-2.204,1.022-4.431,2.059-6.337,3.566c-1.906,1.507-3.489,3.554-3.965,5.936c1.101-2.369,3.583-3.86,6.134-4.422
		c2.551-0.562,5.202-0.331,7.804-0.097c-3.086,0.953-8.78,2.477-8.182,6.797c1.971-1.579,4.06-3.013,6.242-4.285
		c-1.279,2.914-3.417,5.498-4.471,8.486c3.195-1.235,5.767-3.785,7.5-6.739c1.733-2.955,2.688-6.304,3.319-9.67
		c0.582,5.135-1.479,10.16-3.497,14.917c4.777-1.747,10.345-1.172,14.664,1.515C276.289,62.89,269.21,65.894,265.07,71.302z">
		</path>
		<animateTransform
			attributeName="transform"
			type="translate"
			keyTimes="0;0.5;1"
			values="0;-3;0"
			repeatCount="indefinite"
			calcMode="spline"
			keySplines="0.42 0 0.58 1;0.42 0 0.58 1"
			begin="0s"
			dur="2s"
		/>
	</g>
		
		
	<path style="fill:#A4C90A;" d="M267.695,90.929c0.189-1.349-0.853-3.554-0.925-5.029c-0.077-1.558,0.059-3.015,0.448-4.523
		c0.879-3.402,2.732-6.465,4.527-9.448c-1.08,0.436-3.528,1.06-4.303,1.845c-1.56,1.581-2.952,3.326-4.149,5.198
		c-0.815-4.69,0.077-9.658,2.473-13.772c-1.123,0.006-1.992,0.956-2.639,1.874c-1.638,2.319-2.851,4.937-3.561,7.685
		c-0.233-2.586,0.271-5.176,0.407-7.769c0.136-2.593-0.16-5.366-1.75-7.419c0.174,3.257,0.057,6.574-0.908,9.69
		c-0.966,3.115-2.853,6.031-5.624,7.75c-0.842,0.522-1.241-6.136-1.06-6.762c0.708-2.441,2.321-4.511,3.823-6.507
		c-3.096,1.008-5.38,2.329-7.173,5.246c0.326-4.202,2.181-8.27,5.141-11.271c-3.791,1.019-7.063,3.82-8.653,7.41
		c0.868-2.378,1.689-4.815,1.823-7.343c0.133-2.528-0.499-5.195-2.22-7.052c0.639,4.377-0.817,9.013-3.844,12.237
		c-0.035-2.505-0.07-5.011-0.105-7.516c-0.541,1.847-1.204,3.555-2.155,5.212c-0.477,0.831-0.822,1.604-1.532,2.285
		c-0.313,0.3-1.881,1.018-1.978,1.288c1.519-4.256,3.052-8.873,1.746-13.199c-0.466,3.078-2.364,5.722-4.205,8.233
		c0.666-2.49,1.003-5.067,0.999-7.644c-2.361,2.529-4.808,5.212-5.644,8.569c-0.432-3.888,2.994-14.307,8.193-14.194
		c-2.902-0.064-5.641,1.28-8.137,2.763c-2.001,1.188-4.189,3.007-3.861,5.311c-1.118-4.907-0.118-10.258,2.695-14.431
		c-4.691,3.138-7.623,8.745-7.523,14.388c-0.051-3.455-0.276-7.321-2.814-9.667c1.026,5.082-0.479,9.242-2.72,13.665
		c-0.107-3.144-0.566-6.275-1.365-9.318c-0.278,2.693-1.418,5.29-3.213,7.316c-0.291-0.396-0.553-0.806-0.793-1.223
		c-0.09-0.157-0.163-0.321-0.247-0.481c-0.136-0.262-0.273-0.523-0.391-0.792c-0.092-0.211-0.169-0.427-0.249-0.642
		c-0.083-0.221-0.168-0.441-0.24-0.665c-0.08-0.253-0.148-0.509-0.213-0.766c-0.048-0.187-0.096-0.373-0.137-0.562
		c-0.061-0.29-0.113-0.584-0.158-0.878c-0.023-0.153-0.045-0.306-0.064-0.459c-0.039-0.328-0.069-0.657-0.088-0.987
		c-0.006-0.114-0.01-0.228-0.014-0.342c-0.012-0.367-0.017-0.734-0.005-1.102c0.002-0.066,0.007-0.133,0.01-0.199
		c0.018-0.41,0.046-0.82,0.092-1.23c0.499-4.386,2.616-8.698,5.69-11.659c-5.436,2.068-8.606,8.188-11.571,12.799
		c0.132-2.378,0.288-5.428-0.081-7.816c-0.343-2.216-1.537-4.968-1.537-4.968c0.708,7.538-2.519,14.793-2.519,14.793
		c-0.086-2.599-1.799-4.941-2.451-5.713c-1.397-1.653-3.391-3.578-6.415-4.769c0,0,4.432,4.71,5.061,8.38
		c0.328,1.913,0.318,3.692-0.107,4.753c-0.773,1.929-2.343,3.38-4.144,4.634c-0.486,0.374-2.864,1.834-3.031,1.904
		c-1.317,0.783-2.598,1.543-3.652,2.375c-0.825,0.651-1.56,1.406-2.215,2.225c0.054,0.033,0.111,0.061,0.165,0.095
		c0.417,0.264,0.814,0.557,1.208,0.853c0.563,0.422,0.927,0.938,1.455,1.394c0.367,0.316,0.814,0.522,1.261,0.708
		c0.946,0.394,1.93,0.72,2.949,0.822c0.958,1.722,2.885,1.376,4.355,2.231c0.44,0.257,0.665,0.758,0.992,1.149
		c0.699,0.834,1.836,1.132,2.738,1.739c0.362,0.243,0.69,0.54,1.072,0.75c0.815,0.448,1.796,0.463,2.668,0.784
		c0.124,0.046,0.247,0.098,0.354,0.176c0.133,0.096,0.235,0.227,0.339,0.354c1.737,2.122,4.223,3.618,6.912,4.16
		c1.038,0.209,1.59,1.448,2.373,2.138c0.38,0.335,0.809,0.612,1.245,0.87c0.382,0.226,0.775,0.441,1.201,0.566
		c0.372,0.109,0.761,0.147,1.135,0.245c0.808,0.211,1.518,0.69,2.189,1.186c0.19,0.14,0.389,0.279,0.593,0.404
		c3.034,0.233,4.835,2.197,7.547,4.209c1.698,1.259,3.807,1.754,5.51,3.03c0.894,0.67,1.719,1.413,2.54,2.161
		c0.239,0.119,0.482,0.229,0.721,0.349c0.127,0.073,0.245,0.159,0.372,0.23c0.667,0.368,1.354,0.704,2.055,1.003
		c0.839,0.429,1.676,0.859,2.513,1.294c0.067,0.07,0.144,0.132,0.224,0.187c0.596,0.401,1.259,0.861,1.937,1.108
		c0.624,0.228,1.029,0.476,1.439,1.026c0.28,0.375,0.697,0.683,1.059,0.977c0.639,0.519,1.378,0.97,2.199,1.044
		c0.808,0.072,1.386,0.039,1.978,0.661c0.567,0.596,1.162,1.139,1.841,1.607c1.326,0.914,2.828,1.551,4.359,2.033
		c1.132,0.356,2.033,0.224,2.814-0.714c0.157-0.189,0.287-0.407,0.492-0.542c0.632-0.416,1.711-0.373,2.439-0.651
		c0.925-0.353,1.791-0.847,2.624-1.377c1.102-0.702,2.162-1.472,3.305-2.108c0.999-0.556,1.568-1.63,2.572-2.142
		c0.378-0.193,0.818-0.206,1.237-0.279c0.813-0.14,1.565-0.51,2.297-0.889c1.862-0.962,3.723-2.044,5.057-3.66
		c0.189-0.228,0.372-0.472,0.629-0.62c0.126-0.073,0.265-0.117,0.407-0.151c0.074-1.02,0.09-2.064,0.112-3.104l0.001-0.001
		c0.007-0.314,0.015-0.626,0.025-0.938c0.017-0.539,0.042-1.074,0.083-1.601c0.009-0.119,0.022-0.236,0.033-0.354
		c0.052-0.572,0.119-1.136,0.228-1.681c0.75-3.765,2.333-7.465,5.096-10.129C273.128,77.009,268.709,83.693,267.695,90.929z"/>
	<path style="opacity:0.37;fill:#79AF07;" d="M262.66,96.075c-2.481-0.422-2.373-2.373-1.447-4.235
		c0.455-0.916,2.595-4.266,3.717-4.332c-1.727,0.101-3.323,1.029-4.561,2.237c-1.238,1.209-2.168,2.691-3.086,4.158
		c-1.25-0.823-2.383-1.964-2.754-3.414c-0.632-2.472,1.101-4.912,2.974-6.646c2.176-2.015,4.69-3.666,7.404-4.862
		c-2.903-0.247-5.839-0.116-8.708,0.39c-1.794,0.316-3.796,0.967-4.523,2.638c0.394-1.498,0.788-2.996,1.183-4.493
		c-1.948,1.836-4.085,3.472-6.365,4.874c1.125-3.737,1.13-7.804,0.014-11.544c-1.271,3.754-3.605,7.142-6.66,9.667
		c1.232-3.408,1.344-7.209,0.316-10.683c-0.318,1.778-0.642,3.575-1.368,5.228c-1.164,2.652-2.914,3.367-5.251,4.639
		c2.37-3.57,3.53-7.928,3.249-12.203c-0.937,3.581-3.417,6.729-6.68,8.477c0.728-1.884,1.456-3.769,2.184-5.653
		c-1.449,2.059-2.898,4.118-4.347,6.176c-0.108-3.035,0.645-6.095,2.149-8.733c-4.401,2.773-7.824,7.065-9.548,11.973
		c-0.513-5.426,1.336-10.766,3.158-15.903c-1.118,0.779-2.411,1.307-3.755,1.534c1.075-1.132,1.983-2.422,2.686-3.816
		c-1.163,0.548-2.333,1.198-3.537,1.628c0.354-1.726,1.545-3.651,2.708-4.964c-2.759,1.647-5.224,3.786-7.242,6.287
		c-0.428-2.428,0.072-4.912,0.571-7.326c-1.594,2.427-3.415,4.705-5.433,6.793c1.193-2.622,1.293-5.722,0.27-8.415
		c-0.071,2.898-1.075,5.767-2.827,8.076c-1.142-2.071-3.064-3.622-4.238-5.676c-1.242-2.172-1.558-4.794-1.195-7.269
		c0.364-2.475,1.37-4.818,2.627-6.981c-2.639,2.342-4.564,5.416-5.936,8.655c-0.072,0.17-0.186,0.37-0.37,0.362
		c-0.289-0.013-0.273-0.447-0.177-0.721c0.452-1.297,0.476-2.741,0.067-4.052c-0.264,3.368-2.078,6.97-5.604,7.504
		c-0.6,0.091-3.574-0.398-3.816-0.201c-0.376,0.306-0.766,0.603-1.172,0.886c-0.486,0.374-2.864,1.834-3.031,1.904
		c-1.317,0.783-2.598,1.543-3.652,2.375c-0.825,0.651-1.56,1.406-2.215,2.225c0.054,0.033,0.111,0.061,0.165,0.095
		c0.417,0.264,0.814,0.557,1.208,0.853c0.563,0.422,0.927,0.938,1.455,1.394c0.367,0.316,0.814,0.522,1.261,0.708
		c0.946,0.394,1.93,0.72,2.949,0.822c0.958,1.722,2.885,1.376,4.355,2.231c0.44,0.257,0.665,0.758,0.992,1.149
		c0.699,0.834,1.836,1.132,2.738,1.739c0.362,0.243,0.69,0.54,1.072,0.75c0.815,0.448,1.796,0.463,2.668,0.784
		c0.124,0.046,0.247,0.098,0.354,0.176c0.133,0.096,0.235,0.227,0.339,0.354c1.737,2.122,4.223,3.618,6.912,4.16
		c1.038,0.209,1.59,1.448,2.373,2.138c0.38,0.335,0.809,0.612,1.245,0.87c0.382,0.226,0.775,0.441,1.201,0.566
		c0.372,0.109,0.761,0.147,1.135,0.245c0.67,0.175,1.271,0.536,1.84,0.937c2.113,0.531,3.924,1.543,5.521,2.92
		c2.085,0.794,3.8,2.212,5.861,3.586c1.988,1.325,4.056,2.531,5.964,3.95c0.095,0.06,0.188,0.123,0.287,0.177
		c0.667,0.368,1.354,0.704,2.055,1.003c0.839,0.429,1.676,0.859,2.513,1.294c0.067,0.07,0.144,0.132,0.224,0.187
		c0.596,0.401,1.259,0.861,1.937,1.108c0.624,0.228,1.029,0.476,1.439,1.026c0.28,0.375,0.697,0.683,1.059,0.977
		c0.639,0.519,1.378,0.97,2.199,1.044c0.808,0.072,1.386,0.039,1.978,0.661c0.567,0.596,1.162,1.139,1.841,1.607
		c1.326,0.914,2.828,1.551,4.359,2.033c1.132,0.356,2.033,0.224,2.814-0.714c0.157-0.189,0.287-0.407,0.492-0.542
		c0.632-0.416,1.711-0.373,2.439-0.651c0.925-0.353,1.791-0.847,2.624-1.377c1.102-0.702,2.162-1.472,3.305-2.108
		c0.999-0.556,1.568-1.63,2.572-2.142c0.378-0.193,0.818-0.206,1.237-0.279c0.073-0.012,0.143-0.036,0.215-0.052
		C264.685,96.329,263.694,96.251,262.66,96.075z"/>
	<path style="fill:#A6776B;" d="M305.558,73.293c-0.001,0.007-0.003,0.015-0.004,0.021
		C305.575,73.296,305.613,73.245,305.558,73.293z"/>
	<path style="fill:#C0DD1D;" d="M226.547,89.837c0.101,0.087,0.203,0.174,0.304,0.261c2.983,2.554,6.579,4.151,10.156,5.679
		c2.404,1.027,6.723,4.271,9.285,3.145c1.065-0.468,1.942-1.271,2.93-1.884c2.616-1.624,6.065-1.815,8.844-0.49
		c-1.198-2.563-3.558-4.555-6.286-5.305c1.973-0.675,4.053-1.034,6.138-1.057c-2.934-1.407-6.427-1.606-9.502-0.541
		c3.443-2.909,7.827-4.686,12.325-4.996c-4.907-2.399-10.741-0.9-15.966,0.691c2.598-3.901,6.835-6.672,11.45-7.488
		c-3.539-0.571-7.215-0.281-10.621,0.839c2.807-2.878,6.607-4.769,10.595-5.274c-3.219-2.083-7.432-1.31-11.17-0.461
		c3.172-3.155,4.05-6.218,4.753-10.663c-1.418,3.297-3.829,6.16-6.839,8.116c2.863-2.838,2.441-7.494,1.815-11.476
		c-0.492,3.462-2.065,6.763-4.443,9.327c0.271-3.555-0.871-7.198-3.122-9.962c1.129,2.923,0.398,6.474-1.793,8.714
		c-0.589-2.971-0.491-6.075,0.284-9.002c-2.848,2.499-4.638,6.166-4.858,9.948c-0.222-3.539,0.258-7.12,1.405-10.475
		c-0.496,1.452-2.439,2.897-3.115,4.45c-0.8,1.839-0.946,3.738-1.213,5.764c-0.026-3.705-2.931-7.188-6.572-7.877
		c2.112,2.592,2.362,5.044-0.17,7.661c-0.726,0.75-1.603,1.333-2.39,2.018c-3.096,2.693-4.372,6.289-2.692,10.149
		c0.838,1.924,2.483,3.356,4.077,4.721C222.287,86.19,224.417,88.013,226.547,89.837z">
		<animateTransform
			attributeName="transform"
			type="translate"
			keyTimes="0;0.5;1"
			values="0;3;0"
			repeatCount="indefinite"
			calcMode="spline"
			keySplines="0.42 0 0.58 1;0.42 0 0.58 1"
			begin="0s"
			dur="2s"
		/>
	</path>
	<g>
		<path style="fill:#79AF07;" d="M257.502,82.293c-7.448,1.308-13.988,6.898-16.44,14.052c-0.69-4.454,2.47-8.887,3.189-13.209
			c0.749-4.496,0.094-9.297-2.328-13.209c2.557,7.779,0.075,16.968-6.051,22.402c0.313-2.315,0.973-4.326,1.75-6.47
			c0.422-1.164,0.822-2.844,0.966-4.072c0.385-3.279,0.302-5.595,0.939-6.34c-3.163,3.699-6.294,10.51-6.698,15.474
			c-1.467-2.87-1.441-6.455-1.2-9.433c0.26-3.213,0.878-6.766,3.053-9.144c-1.169,1.278-2.767,3.503-3.619,5.65
			c-0.84,2.117-1.656,4.351-2.143,6.593c-0.417-3.76-1.142-5.514-1.978-8.22c-1.393-4.507-2.883-5.743-3.122-6.45
			c0.727,2.154,1.285,8.581,0.89,12.876c-0.086,0.938-0.271,1.962-0.998,2.561c-1.28,1.052-3.274,0.038-4.195-1.34
			c-2.067-3.092-1.174-8.364,0.168-11.608c1.55-3.746,4.432-6.97,8.098-8.743c-6.183,0.66-13.31,1.915-16.322,7.354
			c0.681-2.01,1.046-4.127,1.078-6.249c-3.354,1.869-6.356,4.365-8.807,7.32c1.015-6.259-0.431-12.885-3.962-18.152
			c-0.632,5.225-3.249,10.185-7.205,13.655c-0.46-2.821,0.128-5.802,1.626-8.236c-2.378,0.73-4.307,2.771-4.902,5.186
			c0.122-2.692,0.822-5.357,2.04-7.761c-2.678,1.696-4.825,4.219-6.069,7.135c0.014-1.064-0.097-2.23-0.298-3.433
			c0.003-0.001,0.007-0.002,0.01-0.003c-0.042-0.253-0.094-0.51-0.145-0.766c-0.015-0.073-0.025-0.144-0.041-0.217
			c-0.1-0.483-0.219-0.97-0.351-1.459c-0.004-0.015-0.007-0.03-0.011-0.045l-0.001,0c-1.397-5.136-4.521-10.41-9.081-12.113
			c-0.421-0.158-0.855-0.284-1.301-0.378c2.454,1.761,3.659,4.845,3.936,7.853c0.262,2.846-0.185,5.697-0.508,8.54l0,0
			c-0.006,0.049-0.012,0.099-0.018,0.149v0c-0.001,0.011-0.003,0.022-0.004,0.033c0.011-0.002,0.022-0.003,0.033-0.005
			c0.036,0.05,0.081,0.104,0.135,0.129c0.114,0.051,0.226,0.106,0.337,0.163c0.223,0.115,0.44,0.241,0.652,0.375
			c0.417,0.264,0.814,0.557,1.208,0.853c0.563,0.422,0.927,0.938,1.455,1.394c0.367,0.316,0.814,0.522,1.261,0.708
			c0.946,0.394,1.93,0.72,2.949,0.822c0.958,1.722,2.885,1.376,4.355,2.231c0.44,0.257,0.665,0.758,0.992,1.149
			c0.699,0.834,1.836,1.132,2.738,1.739c0.362,0.243,0.69,0.54,1.072,0.75c0.815,0.448,1.796,0.463,2.668,0.784
			c0.124,0.046,0.247,0.098,0.354,0.176c0.133,0.096,0.235,0.227,0.339,0.354c1.737,2.122,4.223,3.618,6.912,4.16
			c1.038,0.209,1.59,1.448,2.373,2.138c0.38,0.335,0.809,0.612,1.245,0.87c0.382,0.226,0.775,0.441,1.201,0.566
			c0.372,0.109,0.761,0.147,1.135,0.245c0.808,0.211,1.518,0.69,2.189,1.186c0.488,0.36,1.016,0.752,1.622,0.742
			c0.102-0.002,0.207-0.015,0.306,0.011c0.259,0.067,0.376,0.356,0.502,0.592c0.375,0.703,1.079,1.129,1.788,1.44
			c0.718,0.315,1.423,0.281,2.16,0.468c0.154,0.039,0.281,0.144,0.402,0.247c1.749,1.488,3.441,3.18,5.623,3.896
			c0.441,0.145,0.895,0.246,1.345,0.359c0.065,0.017,0.133,0.035,0.181,0.081c0.041,0.04,0.062,0.094,0.086,0.146
			c0.228,0.503,0.873,0.889,1.318,1.197c0.628,0.435,1.283,0.835,1.952,1.204c1.319,0.729,2.709,1.334,4.153,1.769
			c0.072,0.021,0.147,0.045,0.196,0.101c0.062,0.07,0.067,0.171,0.1,0.258c0.059,0.157,0.204,0.262,0.343,0.356
			c0.596,0.401,1.259,0.861,1.937,1.108c0.624,0.228,1.029,0.476,1.439,1.026c0.28,0.375,0.697,0.683,1.059,0.977
			c0.639,0.519,1.378,0.97,2.199,1.044c0.808,0.072,1.386,0.039,1.978,0.661c0.567,0.596,1.162,1.139,1.841,1.607
			c1.326,0.914,2.828,1.551,4.359,2.033c0.163,0.051,0.31,0.068,0.464,0.098c-0.22-0.224-0.455-0.437-0.671-0.66
			c-3.777-3.89-2.763-10.454,0.226-14.355C252.047,86.539,254.791,84.4,257.502,82.293z"/>
		<path style="fill:#6C9905;" d="M252.892,86.134c-1.284,0.826-2.492,1.811-3.571,3.16c-1.075,1.343-2.765,4.971-4.663,5.739
			c-0.344,0.263-0.71,0.434-1.102,0.434c-0.449,0-0.77-0.365-0.793-0.793c-0.022-0.4-0.025-0.774-0.011-1.136
			c-0.009-0.312,0.018-0.636,0.076-0.948c-0.71,1.19-1.316,2.441-1.766,3.756c-0.479-3.095,0.899-6.179,2.027-9.223
			c-0.732,1.018-1.625,1.8-2.709,2.186c-0.475,0.169-1.027-0.275-1.004-0.765c0.005-0.116,0.013-0.235,0.019-0.352
			c-0.987,1.525-2.159,2.928-3.522,4.138c0.301-2.227,0.926-4.175,1.665-6.228c-0.484,1.013-1.063,1.977-1.809,2.842
			c-0.407,0.472-1.161,0.182-1.325-0.35c-0.246-0.792-0.389-1.734-0.451-2.734c-0.579,1.765-0.995,3.506-1.122,5.061
			c-0.398-0.778-0.679-1.612-0.882-2.469c-0.534,0.469-1.183,0.542-1.774-0.273c-1.035-1.426-0.293-4.99-0.031-6.573
			c0.147-0.889,0.335-1.797,0.569-2.699c-0.71,1.843-1.372,3.757-1.791,5.68c-0.208-1.873-0.492-3.247-0.828-4.49
			c-0.075,1.1-0.315,2.178-0.79,3.201c-0.189,0.407-0.731,0.464-1.085,0.285c-0.624-0.315-1.083-0.884-1.448-1.554
			c-0.016,0.261-0.036,0.517-0.058,0.765c-0.086,0.938-0.271,1.962-0.998,2.561c-1.28,1.052-3.274,0.038-4.195-1.34
			c-1.204-1.8-1.387-4.337-1.08-6.784c-0.036,0.043-0.064,0.088-0.101,0.131c-2.227,2.616-5.69-0.287-5.215-3.036
			c0.487-2.821,1.439-5.554,3.123-7.809c-1.987,1.049-3.668,2.487-4.784,4.501c0.533-1.574,0.866-3.214,1.003-4.871
			c-1.144,3.298-2.697,6.825-5.641,7.837c-0.499,0.172-0.996-0.278-1.004-0.765c-0.022-1.358,0.346-2.633,0.596-3.937
			c-0.946,0.887-1.856,1.81-2.684,2.808c0.232-1.433,0.32-2.884,0.299-4.335c-0.641,0.862-1.433,1.518-2.431,1.818
			c-4.055,1.22-5.249-3.076-4.682-6.109c0.113-0.606,0.238-1.207,0.36-1.809c-1.213,2.233-2.802,4.262-4.713,5.938
			c-0.46-2.821,0.128-5.802,1.626-8.236c-2.378,0.73-4.307,2.771-4.902,5.186c0.122-2.692,0.822-5.357,2.04-7.761
			c-2.678,1.696-4.825,4.219-6.069,7.135c0.014-1.064-0.097-2.23-0.298-3.433c0.003-0.001,0.007-0.002,0.01-0.003
			c-0.042-0.253-0.094-0.51-0.145-0.766c-0.009-0.043-0.016-0.086-0.024-0.129c-1.756,2.055-5.271,1.356-5.509-1.852
			c-0.125-1.681-0.713-4.259-1.69-6.565c0.182,0.72,0.306,1.455,0.373,2.186c0.262,2.846-0.185,5.697-0.508,8.54l0,0
			c-0.006,0.049-0.012,0.099-0.018,0.149v0c-0.001,0.011-0.003,0.022-0.004,0.033c0.011-0.002,0.022-0.003,0.033-0.005
			c0.036,0.05,0.081,0.104,0.135,0.129c0.114,0.051,0.226,0.106,0.337,0.163c0.223,0.115,0.44,0.241,0.652,0.375
			c0.417,0.264,0.814,0.557,1.208,0.853c0.563,0.422,0.927,0.938,1.455,1.394c0.367,0.316,0.814,0.522,1.261,0.708
			c0.946,0.394,1.93,0.72,2.949,0.822c0.958,1.722,2.885,1.376,4.355,2.231c0.44,0.257,0.665,0.758,0.992,1.149
			c0.699,0.834,1.836,1.132,2.738,1.739c0.362,0.243,0.69,0.54,1.072,0.75c0.815,0.448,1.796,0.463,2.668,0.784
			c0.124,0.046,0.247,0.098,0.354,0.176c0.133,0.096,0.235,0.227,0.339,0.354c1.737,2.122,4.223,3.618,6.912,4.16
			c1.038,0.209,1.59,1.448,2.373,2.138c0.38,0.335,0.809,0.612,1.245,0.87c0.382,0.226,0.775,0.441,1.201,0.566
			c0.372,0.109,0.761,0.147,1.135,0.245c0.808,0.211,1.518,0.69,2.189,1.186c0.488,0.36,1.016,0.752,1.622,0.742
			c0.102-0.002,0.207-0.015,0.306,0.011c0.259,0.067,0.376,0.356,0.502,0.592c0.375,0.703,1.079,1.129,1.788,1.44
			c0.718,0.315,1.423,0.281,2.16,0.468c0.154,0.039,0.281,0.144,0.402,0.247c1.749,1.488,3.441,3.18,5.623,3.896
			c0.441,0.145,0.895,0.246,1.345,0.359c0.065,0.017,0.133,0.035,0.181,0.081c0.041,0.04,0.062,0.094,0.086,0.146
			c0.228,0.503,0.873,0.889,1.318,1.197c0.628,0.435,1.283,0.835,1.952,1.204c1.319,0.729,2.709,1.334,4.153,1.769
			c0.072,0.021,0.147,0.045,0.196,0.101c0.062,0.07,0.067,0.171,0.1,0.258c0.059,0.157,0.204,0.262,0.343,0.356
			c0.596,0.401,1.259,0.861,1.937,1.108c0.624,0.228,1.029,0.476,1.439,1.026c0.28,0.375,0.697,0.683,1.059,0.977
			c0.639,0.519,1.378,0.97,2.199,1.044c0.808,0.072,1.386,0.039,1.978,0.661c0.567,0.596,1.162,1.139,1.841,1.607
			c1.326,0.914,2.828,1.551,4.359,2.033c0.163,0.051,0.31,0.068,0.464,0.098c-0.22-0.224-0.455-0.437-0.671-0.66
			c-3.777-3.89-2.763-10.454,0.226-14.355C250.832,88.125,251.838,87.107,252.892,86.134z"/>
	</g>
</g>
 <!-- <animateTransform
      attributeName="transform"
      type="rotate"
      dur="4s"
      repeatCount="indefinite"
      begin="0s"
      calcMode="spline"
      keyTimes="0;0.5;1"
      values="0 230 35;
	  -10 230 35;
	  0 230 24"
      keySplines="0.42 0 0.58 1; 0.42 0 0.58 1"
    /> -->
<!-- <animateTransform
	attributeName="transform"
	type="translate"
	keyTimes="0;0.5;1"
	values="0;3;0"
	repeatCount="indefinite"
	calcMode="spline"
	keySplines="0.42 0 0.58 1;0.42 0 0.58 1"
	begin="0s"
	dur="2s"
/> -->
</svg>